#!OML:ASF I:\Actors\actors\Patient Classification 2\Patient 1\Session 1\actor1.ASF
:FULLY-SPECIFIED
:DEGREES
239
root -1.21077 17.775 3.71663 21.1472 5.42187 -2.2107
lowerback 37.1064 0.0225636 0.604732
upperback 16.5069 0.411513 2.11919
thorax -0.287168 0.135552 1.76933
lowerneck 0.426115 -5.09977 -9.42647
upperneck 45.6151 -5.54945 0.421613
head 17.0292 -3.58061 1.25712
rclavicle -1.93815e-015 -7.96381e-015
rhumerus -29.5129 5.16439 -82.4489
rradius 113.806
rwrist 17.2622
rhand -32.9613 -38.6886
rfingers 7.12502
rthumb -6.1769 -68.5785
lclavicle -1.93815e-015 -7.96381e-015
lhumerus -27.2611 -11.6085 90.574
lradius 105.037
lwrist -6.02011
lhand -23.8495 -40.1536
lfingers 7.12502
lthumb 2.62269 -10.19
rfemur -44.5678 -6.72482 20.0606
rtibia 44.8403
rfoot -24.2973 -3.46539
rtoes -15.9839
lfemur -52.1812 2.59221 -9.52413
ltibia 48.5654
lfoot -16.5836 0.782905
ltoes -58.4656
240
root -1.21435 17.7645 3.70449 21.2854 5.40839 -2.10517
lowerback 37.156 0.251854 0.305891
upperback 16.4638 0.613795 2.47919
thorax -0.367281 0.19634 2.23758
lowerneck 0.817774 -5.90715 -10.5955
upperneck 45.4074 -6.3864 0.0860723
head 16.9603 -4.11051 1.21376
rclavicle 6.65929e-015 8.89561e-015
rhumerus -32.0223 5.8704 -84.4036
rradius 109.678
rwrist 17.4933
rhand -32.3402 -37.6659
rfingers 7.12502
rthumb -5.57717 -67.5725
lclavicle 6.65929e-015 8.89561e-015
lhumerus -27.5858 -12.1641 91.7618
lradius 101.972
lwrist -5.80279
lhand -20.775 -36.868
lfingers 7.12502
lthumb 5.59162 -6.9618
rfemur -44.8782 -6.7202 19.9709
rtibia 45.0773
rfoot -24.4084 -3.54166
rtoes -16.3447
lfemur -52.4431 2.80603 -9.73044
ltibia 48.6843
lfoot -16.5646 0.553602
ltoes -58.4683
241
root -1.20188 17.7517 3.69161 21.3026 5.35628 -2.00981
lowerback 37.2702 0.187491 0.264018
upperback 16.3262 0.532567 2.58605
thorax -0.554091 0.149064 2.39638
lowerneck 1.06731 -6.69443 -12.1093
upperneck 45.2284 -7.15692 -0.219555
head 16.9864 -4.66808 1.23965
rclavicle 8.34896e-015 7.15625e-015
rhumerus -33.8791 7.21701 -86.3531
rradius 105.167
rwrist 16.9838
rhand -29.508 -36.4603
rfingers 7.12502
rthumb -2.84233 -66.4211
lclavicle 8.34896e-015 7.15625e-015
lhumerus -27.6744 -12.5903 92.5751
lradius 98.9235
lwrist -5.34707
lhand -16.2362 -30.479
lfingers 7.12502
lthumb 9.97232 -0.735201
rfemur -45.0378 -6.90209 19.89
rtibia 45.2177
rfoot -24.3551 -3.49313
rtoes -16.8481
lfemur -52.5396 2.90054 -9.93647
ltibia 48.7312
lfoot -16.5613 0.457193
ltoes -58.4969
242
root -1.1719 17.7424 3.67961 21.1131 5.08629 -1.79768
lowerback 37.2305 0.00810202 0.402875
upperback 16.3396 0.346451 2.39195
thorax -0.514682 0.076853 2.18031
lowerneck 1.57717 -7.50652 -14.0406
upperneck 44.7159 -8.13733 -0.0354666
head 16.8614 -5.32046 1.53168
rclavicle -4.57205e-015 -2.45996e-015
rhumerus -34.9934 9.036 -88.4169
rradius 100.676
rwrist 14.643
rhand -25.0806 -35.8697
rfingers 7.12502
rthumb 1.4337 -65.8446
lclavicle -4.57205e-015 -2.45996e-015
lhumerus -27.4461 -13.0852 93.0774
lradius 94.3856
lwrist -5.29819
lhand -11.6974 -24.6727
lfingers 7.12502
lthumb 14.3486 4.81142
rfemur -44.9321 -7.18142 19.5919
rtibia 45.2345
rfoot -24.134 -3.20221
rtoes -17.08
lfemur -52.3044 2.9128 -10.3201
ltibia 48.7069
lfoot -16.6507 0.525953
ltoes -58.5124
243
root -1.16498 17.7564 3.69076 20.6936 4.87532 -1.50684
lowerback 36.906 -0.0466325 0.319794
upperback 16.5356 0.236931 2.20022
thorax -0.190663 0.0296629 2.05839
lowerneck 1.99832 -8.5862 -15.7118
upperneck 44.0306 -9.5197 0.0739365
head 16.7097 -6.09503 1.67315
rclavicle -6.95746e-015 -1.81143e-014
rhumerus -35.3501 11.1302 -90.1872
rradius 95.7775
rwrist 11.2512
rhand -21.0524 -35.5917
rfingers 7.12502
rthumb 5.32377 -65.5048
lclavicle -6.95746e-015 -1.81143e-014
lhumerus -26.9743 -14.0563 93.3112
lradius 89.4243
lwrist -5.77718
lhand -5.94331 -20.4507
lfingers 7.12502
lthumb 19.8868 8.55178
rfemur -44.2932 -7.25781 19.1812
rtibia 45.071
rfoot -24.1786 -3.06612
rtoes -17.5059
lfemur -51.5994 2.98938 -10.7513
ltibia 48.5417
lfoot -16.8126 0.440906
ltoes -58.5694
244
root -1.1592 17.772 3.68594 20.1889 4.81726 -1.45486
lowerback 36.8906 -0.136073 0.353528
upperback 16.4967 0.134453 2.0901
thorax -0.223486 -0.0113942 1.95768
lowerneck 3.03915 -9.58037 -17.0512
upperneck 43.056 -10.8607 -0.0752911
head 16.2326 -6.82746 1.6802
rclavicle -8.54774e-015 2.06488e-014
rhumerus -35.3178 13.6855 -91.278
rradius 91.0547
rwrist 10.5049
rhand -36.5013 -29.8842
rfingers 7.12502
rthumb -9.59353 -59.6458
lclavicle -8.54774e-015 2.06488e-014
lhumerus -26.7159 -15.3413 93.4421
lradius 85.1274
lwrist -5.14003
lhand -7.81573 -28.4563
lfingers 7.12502
lthumb 18.0861 0.722791
rfemur -43.5461 -7.18888 19.0009
rtibia 44.7651
rfoot -24.2271 -3.123
rtoes -17.9915
lfemur -50.889 2.92346 -10.8416
ltibia 48.3205
lfoot -16.8974 0.492494
ltoes -58.6378
245
root -1.1511 17.7938 3.6795 19.6012 4.48109 -1.63903
lowerback 37.0115 -0.107775 0.289564
upperback 16.2904 0.137981 1.96815
thorax -0.487322 -0.00846544 1.86197
lowerneck 3.75687 -10.7343 -18.1429
upperneck 42.2463 -12.2768 -0.669258
head 15.9024 -7.59937 1.42145
rclavicle -1.88845e-015 4.73356e-015
rhumerus -35.2459 17.0852 -92.1705
rradius 88.2362
rwrist 12.4112
rhand -41.5538 -32.3813
rfingers 7.12502
rthumb -14.4652 -61.8571
lclavicle -1.88845e-015 4.73356e-015
lhumerus -26.7549 -15.5624 93.3236
lradius 84.6261
lwrist -4.42621
lhand -10.1523 -26.9984
lfingers 7.12502
lthumb 15.8369 2.37386
rfemur -42.6985 -6.79292 18.9975
rtibia 44.3099
rfoot -24.1476 -3.16047
rtoes -17.8252
lfemur -49.9873 3.06471 -10.7035
ltibia 48.027
lfoot -17.0057 0.652242
ltoes -58.6943
246
root -1.1406 17.8119 3.67411 19.1139 4.11255 -1.88467
lowerback 36.7855 -0.0806181 0.228712
upperback 16.0912 0.135256 1.84749
thorax -0.632007 -0.0088931 1.76763
lowerneck 4.31681 -12.1314 -19.4971
upperneck 41.3807 -14.0852 -1.05251
head 15.6982 -8.54731 1.21229
rclavicle -6.72296e-015 -1.66156e-014
rhumerus -34.568 19.7928 -92.2986
rradius 86.3123
rwrist 13.8738
rhand -41.5449 -33.4855
rfingers 7.12502
rthumb -14.4567 -62.9619
lclavicle -6.72296e-015 -1.66156e-014
lhumerus -27.005 -14.7391 93.1813
lradius 85.5151
lwrist -4.45303
lhand -6.78942 -21.9418
lfingers 7.12502
lthumb 19.0733 7.14295
rfemur -41.949 -6.43386 19.0899
rtibia 43.7354
rfoot -23.8745 -3.27374
rtoes -17.781
lfemur -49.1823 3.13053 -10.4479
ltibia 47.705
lfoot -17.0634 0.93567
ltoes -58.6976
247
root -1.13952 17.8368 3.6737 18.1476 4.06543 -2.06721
lowerback 37.1054 -0.182613 0.158938
upperback 15.8574 -0.0093045 1.77364
thorax -0.985792 -0.0789151 1.77354
lowerneck 5.22173 -13.2991 -20.6008
upperneck 39.8002 -15.8594 -1.04617
head 15.0708 -9.41026 1.18598
rclavicle 6.31141e-015 -1.74185e-014
rhumerus -33.2733 21.6262 -91.8738
rradius 85.8804
rwrist 11.5865
rhand -36.9211 -33.2801
rfingers 7.12502
rthumb -9.99854 -63.0226
lclavicle 6.31141e-015 -1.74185e-014
lhumerus -27.4371 -13.8035 93.1426
lradius 85.9895
lwrist -4.35024
lhand -3.76644 -20.1688
lfingers 7.12502
lthumb 21.9782 8.6026
rfemur -40.5499 -6.30649 19.1547
rtibia 43.1249
rfoot -23.7425 -3.3869
rtoes -18.062
lfemur -47.8972 2.88318 -10.1417
ltibia 47.4238
lfoot -17.1349 1.09308
ltoes -58.6989
248
root -1.14522 17.8767 3.69888 16.9031 3.9153 -2.25455
lowerback 37.4752 -0.25375 -0.073312
upperback 15.6055 -0.173648 1.65839
thorax -1.37363 -0.164807 1.82909
lowerneck 7.00496 -14.6494 -20.9579
upperneck 37.3254 -17.943 -1.6508
head 13.756 -10.363 0.908312
rclavicle -4.57205e-015 1.20762e-014
rhumerus -31.5844 23.1177 -91.2913
rradius 84.9817
rwrist 10.0972
rhand -29.7372 -32.9128
rfingers 7.12502
rthumb -3.06366 -62.8706
lclavicle -4.57205e-015 1.20762e-014
lhumerus -27.9111 -13.1844 93.0073
lradius 85.8689
lwrist -3.11626
lhand -2.40415 -19.6572
lfingers 7.12502
lthumb 23.2857 8.95472
rfemur -38.6639 -6.12328 19.206
rtibia 42.4348
rfoot -23.7225 -3.27961
rtoes -18.111
lfemur -46.1122 2.84443 -9.88697
ltibia 47.0812
lfoot -17.3087 1.05555
ltoes -58.7118
